<svg aria-hidden="true" style="width:0;height:0;position:absolute;overflow:hidden" xmlns="http://www.w3.org/2000/svg"><defs><symbol id="icon-bubble" viewBox="0 0 32 32"><path d="M16 7a.5.5 0 0 1 0 1c-5.327 0-10 2.804-10 6a.5.5 0 0 1-1 0c0-3.794 5.037-7 11-7zm0-5C7.163 2 0 7.373 0 14c0 4.127 2.779 7.766 7.008 9.926 0 .027-.008.045-.008.074 0 1.793-1.339 3.723-1.928 4.736h.002A.906.906 0 0 0 5.906 30c.094 0 .259-.025.255-.014 3.125-.512 6.069-3.383 6.753-4.215A21.18 21.18 0 0 0 16 26c8.835 0 16-5.373 16-12S24.836 2 16 2zm0 22c-.917 0-1.858-.07-2.796-.207a2 2 0 0 0-1.836.709c-.428.521-1.646 1.684-3.085 2.539.39-.895.695-1.898.716-2.932a2 2 0 0 0-1.081-1.965C4.212 20.252 2 17.207 2 14 2 8.486 8.28 4 16 4c7.718 0 14 4.486 14 10s-6.281 10-14 10z"/></symbol><symbol id="icon-like" viewBox="0 0 32 32"><path d="M29.164 10.472c-1.25-.328-4.189-.324-8.488-.438.203-.938.25-1.784.25-3.286C20.926 3.16 18.312 0 16 0c-1.633 0-2.979 1.335-3 2.977-.022 2.014-.645 5.492-4 7.256-.246.13-.95.477-1.053.522L8 10.8c-.525-.453-1.253-.8-2-.8H3c-1.654 0-3 1.346-3 3v16c0 1.654 1.346 3 3 3h3c1.19 0 2.186-.719 2.668-1.727.012.004.033.01.047.012l.239.062.046.012c.576.143 1.685.408 4.055.953.508.116 3.192.688 5.972.688h5.467c1.666 0 2.867-.641 3.582-1.928.01-.02.24-.469.428-1.076a3.33 3.33 0 0 0 .023-1.76c1.074-.738 1.42-1.854 1.645-2.58.377-1.191.264-2.086.002-2.727.604-.57 1.119-1.439 1.336-2.766a3.757 3.757 0 0 0-.389-2.372c.566-.636.824-1.436.854-2.176l.012-.209c.007-.131.013-.212.013-.5 0-1.263-.875-2.874-2.836-3.434zM7 29a1 1 0 0 1-1 1H3a1 1 0 0 1-1-1V13a1 1 0 0 1 1-1h3a1 1 0 0 1 1 1v16zm22.977-14.465C29.957 15.029 29.75 16 28 16h-2a.5.5 0 1 0 0 1h1.938c1.5 0 1.697 1.244 1.6 1.844-.124.746-.474 2.156-2.163 2.156H25a.499.499 0 1 0 0 1h1.969c1.688 0 1.539 1.287 1.297 2.055-.319 1.009-.514 1.945-2.641 1.945h-1.631a.499.499 0 1 0 0 1h1.568c1.094 0 1.145 1.035 1.031 1.406-.125.406-.273.707-.279.721-.302.545-.789.873-1.82.873h-5.467c-2.746 0-5.47-.623-5.54-.639-4.154-.957-4.373-1.031-4.634-1.105 0 0-.846-.143-.846-.881L8 13.563c0-.469.299-.893.794-1.042.062-.024.146-.05.206-.075 4.568-1.892 5.959-6.04 6-9.446.006-.479.375-1 1-1 1.057 0 2.926 2.122 2.926 4.748 0 2.371-.096 2.781-.926 5.252 10 0 9.93.144 10.812.375 1.094.313 1.188 1.219 1.188 1.531 0 .343-.01.293-.023.629zM4.5 26a1.5 1.5 0 1 0 .001 3.001A1.5 1.5 0 0 0 4.5 26zm0 2c-.275 0-.5-.225-.5-.5s.225-.5.5-.5.5.225.5.5-.225.5-.5.5z"/></symbol><symbol id="icon-download" viewBox="0 0 32 32"><path d="M15 27.25 11.75 24l-.75.75 4.5 4.5 4.5-4.5-.75-.75L16 27.25V16h-1v11.25zM14 22H7.003A4.005 4.005 0 0 1 3 18a4.007 4.007 0 0 1 3.101-3.898 6 6 0 0 1 11.56-3.094 4.5 4.5 0 0 1 7.323 3.115A4.007 4.007 0 0 1 28 18c0 2.205-1.792 4-4.003 4H17v1h7.001A5.003 5.003 0 0 0 29 18a4.997 4.997 0 0 0-3.117-4.634 5.503 5.503 0 0 0-7.789-3.813 7 7 0 0 0-13.082 3.859A5.007 5.007 0 0 0 2 18c0 2.761 2.232 5 4.999 5H14v-1z"/></symbol><symbol id="icon-view" viewBox="0 0 32 32"><path d="M16 9c9 0 13 7 13 7s-4 7-13 7-13-7-13-7 4-7 13-7zm0 1c-8 0-11.8 6-11.8 6S8 22 16 22s11.8-6 11.8-6S24 10 16 10zm0 10a4 4 0 1 1 0-8 4 4 0 0 1 0 8zm0-1a3 3 0 1 0 0-6 3 3 0 0 0 0 6zm0-2a1 1 0 1 0 0-2 1 1 0 0 0 0 2z"/></symbol></defs></svg>